<?xml version="1.0" encoding="utf-8"?>
<!-- Generator: Adobe Illustrator 16.0.0, SVG Export Plug-In . SVG Version: 6.00 Build 0)  -->
<!DOCTYPE svg PUBLIC "-//W3C//DTD SVG 1.1//EN" "http://www.w3.org/Graphics/SVG/1.1/DTD/svg11.dtd">
<svg version="1.1" id="Layer_1" xmlns="http://www.w3.org/2000/svg" xmlns:xlink="http://www.w3.org/1999/xlink" x="0px" y="0px"
	 width="410px" height="91px" viewBox="0 0 410 91" enable-background="new 0 0 410 91" xml:space="preserve">
<g>
	<g>
		<g>
			<path fill="#0B0A0A" d="M53.328,8.5c-1.18-1.114-2.528-1.68-4.008-1.68c-1.876,0-3.499,0.96-4.828,2.859L30.778,29.746
				L16.099,9.484c-1.328-1.768-2.918-2.664-4.726-2.664c-1.405,0-2.786,0.54-4.103,1.605c-1.354,1.099-2.042,2.538-2.042,4.28
				c0,0.644,0.127,1.348,0.376,2.095c0.25,0.753,0.689,1.54,1.302,2.335l17.813,23.668v22.011c0,1.661,0.569,3.072,1.692,4.192
				c1.123,1.124,2.505,1.693,4.108,1.693c1.488,0,2.812-0.569,3.934-1.692c1.124-1.123,1.693-2.533,1.693-4.193V41.986
				l17.921-25.657c0.381-0.572,0.655-1.172,0.816-1.783c0.157-0.601,0.236-1.19,0.236-1.754C55.12,11.069,54.518,9.625,53.328,8.5z"
				/>
			<path fill="#0B0A0A" d="M94.616,23.008c-1.098-1.127-2.496-1.698-4.157-1.698c-1.662,0-3.06,0.571-4.156,1.698
				c-1.09,1.121-1.643,2.53-1.643,4.188v21.906c0,3.329-0.729,5.813-2.165,7.383c-1.421,1.554-3.646,2.342-6.611,2.342
				c-2.907,0-5.103-0.788-6.524-2.342c-1.437-1.568-2.165-4.053-2.165-7.383V27.195c0-1.655-0.553-3.063-1.643-4.188
				c-1.098-1.127-2.496-1.698-4.157-1.698c-1.662,0-3.06,0.571-4.156,1.698c-1.09,1.121-1.643,2.53-1.643,4.188v21.906
				c0,6.231,1.755,11.251,5.215,14.918c3.47,3.678,8.541,5.543,15.073,5.543c6.53,0,11.615-1.864,15.115-5.541
				c3.49-3.669,5.261-8.688,5.261-14.92V27.195C96.26,25.541,95.707,24.132,94.616,23.008z"/>
			<path fill="#0B0A0A" d="M171.097,30.696c-0.837-3.075-2.4-5.576-4.646-7.433c-2.263-1.869-5.574-2.817-9.843-2.817
				c-2.619,0-5.023,0.561-7.146,1.667c-2.095,1.092-3.906,2.439-5.384,4.006c-0.98,1.04-1.801,2.047-2.448,3.007
				c-0.814-1.986-1.948-3.723-3.38-5.173c-2.298-2.327-5.871-3.507-10.62-3.507c-1.963,0-3.808,0.318-5.481,0.946
				c-1.654,0.62-3.186,1.445-4.551,2.453c-1.249,0.924-2.337,1.924-3.239,2.975c-0.078-1.494-0.626-2.775-1.632-3.813
				c-1.098-1.127-2.496-1.698-4.157-1.698c-1.662,0-3.061,0.571-4.157,1.698c-1.09,1.121-1.643,2.53-1.643,4.188v35.619
				c0,1.658,0.553,3.067,1.643,4.187c1.095,1.128,2.493,1.699,4.157,1.699c1.663,0,3.062-0.571,4.157-1.699
				c1.089-1.121,1.642-2.529,1.642-4.187V40.735c0-1.788,0.369-3.419,1.097-4.848c0.719-1.409,1.813-2.557,3.255-3.411
				c1.449-0.858,3.229-1.293,5.287-1.293c2.09,0,3.704,0.421,4.796,1.252c1.109,0.846,1.855,1.94,2.281,3.349
				c0.44,1.457,0.663,3.123,0.663,4.951v22.079c0,1.658,0.553,3.066,1.644,4.187c1.094,1.127,2.492,1.699,4.157,1.699
				c1.663,0,3.062-0.571,4.156-1.699c1.09-1.12,1.643-2.529,1.643-4.187V40.735c0-1.788,0.369-3.419,1.097-4.848
				c0.719-1.409,1.813-2.557,3.255-3.411c1.448-0.858,3.228-1.293,5.287-1.293c2.09,0,3.704,0.421,4.796,1.252
				c1.109,0.846,1.855,1.94,2.281,3.349c0.44,1.461,0.663,3.126,0.663,4.951v22.079c0,1.658,0.553,3.066,1.644,4.187
				c1.094,1.127,2.492,1.699,4.157,1.699c1.662,0,3.061-0.571,4.156-1.699c1.09-1.12,1.643-2.529,1.643-4.187V40.735
				C172.326,37.075,171.913,33.698,171.097,30.696z"/>
			<path fill="#0B0A0A" d="M247.165,30.696c-0.837-3.075-2.4-5.576-4.646-7.433c-2.263-1.869-5.574-2.817-9.842-2.817
				c-2.62,0-5.024,0.561-7.146,1.667c-2.096,1.093-3.906,2.44-5.382,4.006c-0.981,1.039-1.802,2.046-2.45,3.007
				c-0.814-1.987-1.948-3.723-3.38-5.173c-2.298-2.327-5.872-3.507-10.621-3.507c-1.963,0-3.807,0.318-5.479,0.946
				c-1.654,0.619-3.186,1.444-4.551,2.453c-1.251,0.924-2.339,1.924-3.24,2.975c-0.078-1.495-0.626-2.775-1.633-3.813
				c-1.098-1.127-2.496-1.698-4.156-1.698c-1.663,0-3.063,0.571-4.157,1.698c-1.091,1.122-1.644,2.531-1.644,4.188v35.619
				c0,1.658,0.553,3.066,1.644,4.187c1.094,1.127,2.492,1.699,4.157,1.699c1.662,0,3.061-0.571,4.156-1.699
				c1.09-1.12,1.643-2.529,1.643-4.187V40.735c0-1.787,0.369-3.419,1.096-4.848c0.72-1.409,1.814-2.557,3.255-3.411
				c1.449-0.858,3.229-1.293,5.288-1.293c2.091,0,3.704,0.421,4.795,1.252c1.109,0.846,1.856,1.941,2.282,3.349
				c0.44,1.461,0.663,3.126,0.663,4.951v22.079c0,1.658,0.553,3.066,1.644,4.187c1.094,1.127,2.492,1.699,4.156,1.699
				c1.663,0,3.063-0.571,4.158-1.699c1.089-1.121,1.642-2.529,1.642-4.187V40.735c0-1.787,0.369-3.419,1.096-4.848
				c0.72-1.409,1.815-2.557,3.256-3.411c1.449-0.858,3.229-1.293,5.287-1.293c2.091,0,3.704,0.421,4.795,1.252
				c1.109,0.846,1.856,1.94,2.282,3.349c0.44,1.461,0.663,3.127,0.663,4.951v22.079c0,1.658,0.553,3.066,1.644,4.187
				c1.094,1.127,2.492,1.699,4.157,1.699c1.664,0,3.062-0.572,4.155-1.699c1.091-1.12,1.644-2.528,1.644-4.187V40.735
				C248.395,37.075,247.981,33.698,247.165,30.696z"/>
			<path fill="#0B0A0A" d="M293.497,23.008c-1.098-1.127-2.496-1.698-4.157-1.698c-1.663,0-3.063,0.571-4.157,1.698
				c-1.089,1.121-1.642,2.529-1.642,4.188v22.078c0,2.078-0.356,3.856-1.06,5.289c-0.685,1.398-1.673,2.469-2.935,3.179
				c-1.28,0.72-2.89,1.085-4.783,1.085c-2.755,0-4.919-0.713-6.43-2.119c-1.5-1.393-2.26-3.894-2.26-7.434V27.195
				c0-1.655-0.552-3.064-1.642-4.188c-1.098-1.127-2.496-1.698-4.157-1.698c-1.663,0-3.063,0.571-4.157,1.698
				c-1.091,1.122-1.644,2.531-1.644,4.188v25.184c0,3.304,0.661,6.286,1.966,8.863c1.311,2.594,3.173,4.651,5.533,6.113
				c2.36,1.465,5.154,2.207,8.306,2.207c2.637,0,5.021-0.329,7.088-0.977c2.084-0.655,3.912-1.639,5.432-2.922
				c0.28-0.236,0.554-0.485,0.818-0.747c-0.067,2.477-0.489,4.469-1.256,5.929c-0.831,1.577-2.025,2.669-3.651,3.335
				c-1.67,0.685-3.81,1.031-6.36,1.031c-1.865,0-3.527-0.289-4.94-0.86c-1.507-0.607-2.741-1.063-3.643-1.344
				c-1.423-0.518-2.823-0.434-4.127,0.249c-1.297,0.681-2.24,1.95-2.806,3.77c-0.458,1.434-0.309,2.809,0.444,4.087
				c0.727,1.231,2.028,2.261,3.869,3.06c1.367,0.594,3.134,1.044,5.251,1.339c2.094,0.29,4.096,0.438,5.951,0.438
				c4.202,0,8.055-0.713,11.45-2.118c3.44-1.424,6.222-3.783,8.268-7.013c2.038-3.22,3.071-7.583,3.071-12.969V27.195
				C295.139,25.54,294.587,24.131,293.497,23.008z"/>
			<path fill="#0B0A0A" d="M351.798,36.549c-1.097-1.128-2.495-1.699-4.157-1.699h-14.145c-1.656,0-3.064,0.553-4.188,1.643
				c-1.128,1.097-1.699,2.495-1.699,4.157c0,1.663,0.571,3.062,1.699,4.156c1.121,1.091,2.53,1.644,4.188,1.644h7.482v10.106
				c-1.066,0.354-2.339,0.656-3.79,0.898c-2.023,0.338-3.903,0.509-5.589,0.509c-3.607,0-6.937-0.912-9.896-2.712
				c-2.968-1.802-5.361-4.266-7.114-7.322c-1.746-3.051-2.632-6.428-2.632-10.039c0-3.666,0.885-7.058,2.631-10.08
				c1.752-3.027,4.146-5.478,7.115-7.282c2.963-1.8,6.293-2.712,9.896-2.712c1.727,0,3.395,0.17,4.957,0.504
				c1.558,0.333,3.055,0.813,4.421,1.413c0.502,0.252,1.027,0.443,1.559,0.566c0.527,0.127,1.055,0.19,1.567,0.19
				c1.625,0,2.976-0.626,4.016-1.861c1.012-1.204,1.525-2.587,1.525-4.111c0-0.909-0.244-1.81-0.726-2.675
				c-0.487-0.878-1.225-1.585-2.188-2.101c-2.169-1.171-4.573-2.062-7.145-2.646c-2.571-0.583-5.258-0.879-7.986-0.879
				c-4.431,0-8.634,0.829-12.492,2.465c-3.851,1.634-7.282,3.927-10.199,6.815c-2.917,2.887-5.239,6.274-6.902,10.068
				c-1.667,3.802-2.512,7.948-2.512,12.325c0,4.378,0.845,8.524,2.512,12.325c1.663,3.793,3.985,7.181,6.902,10.068
				c2.921,2.892,6.353,5.185,10.199,6.814c3.856,1.636,8.06,2.465,12.492,2.465c3.493,0,6.876-0.487,10.057-1.449
				c3.171-0.962,6.136-2.274,8.83-3.916c0.748-0.497,1.426-1.158,2.015-1.964c0.623-0.853,0.938-1.934,0.938-3.214V40.735
				C353.439,39.079,352.887,37.671,351.798,36.549z"/>
			<path fill="#0B0A0A" d="M401.005,32.27c-2.147-3.673-5.067-6.592-8.679-8.677c-3.616-2.088-7.711-3.146-12.172-3.146
				c-4.459,0-8.554,1.059-12.17,3.146c-3.612,2.084-6.533,5.004-8.681,8.677c-2.145,3.672-3.231,7.971-3.231,12.778
				c0,4.81,1.087,9.108,3.231,12.777c2.146,3.675,5.068,6.58,8.684,8.637c3.612,2.058,7.705,3.101,12.167,3.101
				c4.463,0,8.557-1.043,12.169-3.101c3.614-2.057,6.535-4.963,8.682-8.637c2.146-3.671,3.233-7.97,3.233-12.777
				C404.238,40.242,403.15,35.943,401.005,32.27z M386.427,57.105c-1.875,1.142-3.985,1.721-6.272,1.721
				c-2.285,0-4.396-0.579-6.272-1.721c-1.881-1.146-3.4-2.765-4.52-4.812c-1.123-2.053-1.692-4.49-1.692-7.246
				c0-2.813,0.569-5.279,1.693-7.333c1.118-2.048,2.639-3.666,4.519-4.811c1.875-1.142,3.985-1.721,6.272-1.721
				c2.289,0,4.399,0.579,6.272,1.721c1.879,1.143,3.399,2.761,4.521,4.811c1.122,2.055,1.691,4.521,1.691,7.333
				c0,2.755-0.569,5.192-1.69,7.246C389.826,54.343,388.306,55.962,386.427,57.105z"/>
		</g>
	</g>
</g>
</svg>
