<svg xmlns="http://www.w3.org/2000/svg" width="26" height="26" viewBox="0 0 26 26"><defs><style>.a{fill:#11074c;}</style></defs><path class="a" d="M13,0A13,13,0,1,0,26,13,13.015,13.015,0,0,0,13,0Zm0,24.476A11.477,11.477,0,1,1,24.476,13,11.489,11.489,0,0,1,13,24.476Z"/><path class="a" d="M156.332,70.664A5.332,5.332,0,1,0,151,65.332,5.338,5.338,0,0,0,156.332,70.664Zm0-9.141a3.809,3.809,0,1,1-3.809,3.809A3.813,3.813,0,0,1,156.332,61.523Z" transform="translate(-143.332 -56.953)"/><path class="a" d="M97.73,301.8a5.337,5.337,0,0,0-3.994-1.8H84.6a5.337,5.337,0,0,0-3.994,1.8l-.361.408.269.474a9.955,9.955,0,0,0,17.312,0l.269-.474Zm-8.564,4.4a8.455,8.455,0,0,1-7.027-3.773,3.812,3.812,0,0,1,2.457-.9h9.141a3.812,3.812,0,0,1,2.457.9,8.455,8.455,0,0,1-7.027,3.773Z" transform="translate(-76.166 -284.766)"/></svg>