<svg xmlns="http://www.w3.org/2000/svg" width="20.048" height="26.913" viewBox="0 0 20.048 26.913"><defs><style>.a{fill:#11074c;}</style></defs><path class="a" d="M18.881,9.059c0-.224,0-.409,0-.593a1.248,1.248,0,0,1,1.276-1.285c.518-.006,1.036,0,1.585,0a3.8,3.8,0,0,1,1.81-2.605,3.677,3.677,0,0,1,2.281-.5A3.794,3.794,0,0,1,29.174,7.18h1.455a1.271,1.271,0,0,1,1.4,1.4c0,.146,0,.292,0,.482.535,0,1.058-.006,1.582,0A1.86,1.86,0,0,1,35.4,10.447a2.424,2.424,0,0,1,.074.609q.007,8.963,0,17.927a1.876,1.876,0,0,1-1.993,1.984q-8.026.005-16.052,0a1.881,1.881,0,0,1-2-2.006q0-8.9,0-17.81A1.9,1.9,0,0,1,17.528,9.06C17.967,9.058,18.405,9.059,18.881,9.059Zm0,1.267c-.573,0-1.119-.022-1.662.008a.558.558,0,0,0-.518.577c-.008.107-.006.215-.006.323q0,8.815,0,17.631c0,.667.187.853.854.853H33.365c.666,0,.852-.186.852-.855q0-7,0-13.993c0-1.281,0-2.562,0-3.843,0-.415-.188-.68-.552-.7-.533-.03-1.069-.008-1.631-.008,0,.158,0,.293,0,.427a1.276,1.276,0,0,1-1.441,1.442H26.043c-1.946,0-3.893,0-5.839,0a1.244,1.244,0,0,1-1.322-1.324C18.881,10.687,18.882,10.514,18.882,10.326Zm11.887-1.9H29.007c-.906,0-.962-.051-1.075-.954a2.5,2.5,0,0,0-4.979.247c-.046.523-.24.7-.768.7-.557,0-1.115,0-1.672,0h-.366v2.488H30.769Z" transform="translate(-15.433 -4.055)"/><path class="a" d="M57.419,135.667c-.4,0-.8.007-1.2,0a.6.6,0,0,1-.66-.656q-.012-1.217,0-2.434a.6.6,0,0,1,.632-.658c.821-.015,1.642-.014,2.463,0a.611.611,0,0,1,.652.646q.022,1.231,0,2.463a.616.616,0,0,1-.683.64c-.205.005-.411,0-.616,0Zm.611-1.26v-1.216H56.817v1.216Z" transform="translate(-52.412 -121.904)"/><path class="a" d="M57.445,196.075c.4,0,.8-.007,1.2,0a.6.6,0,0,1,.656.635q.022,1.231,0,2.463a.611.611,0,0,1-.65.649q-1.231.02-2.463,0a.6.6,0,0,1-.634-.657q-.011-1.232,0-2.463a.587.587,0,0,1,.627-.626C56.6,196.068,57.024,196.075,57.445,196.075Zm-.628,2.473h1.212v-1.21H56.817Z" transform="translate(-52.412 -181.049)"/><path class="a" d="M55.541,261.883c0-.4-.006-.8,0-1.2a.616.616,0,0,1,.676-.675q1.2-.008,2.406,0a.618.618,0,0,1,.67.657q.019,1.217,0,2.434a.625.625,0,0,1-.7.661q-1.188.007-2.376,0a.616.616,0,0,1-.677-.674c-.007-.4,0-.8,0-1.2Zm1.256.611h1.224v-1.218H56.8Z" transform="translate(-52.401 -239.976)"/><path class="a" d="M123.938,275.98q1.789,0,3.578,0a1.435,1.435,0,0,1,.376.042.617.617,0,0,1-.01,1.179,1.5,1.5,0,0,1-.377.038q-3.534,0-7.067,0c-.573,0-.874-.221-.871-.636s.3-.625.881-.625Z" transform="translate(-111.42 -254.704)"/><path class="a" d="M123.943,213.27c-1.2,0-2.4,0-3.607,0a1.255,1.255,0,0,1-.4-.049.612.612,0,0,1-.378-.686.633.633,0,0,1,.661-.508c1.065,0,2.131,0,3.2,0,1.4,0,2.8,0,4.193,0a.626.626,0,0,1,.688.74c-.053.323-.3.506-.714.507q-1.818,0-3.636,0Z" transform="translate(-111.398 -195.75)"/><path class="a" d="M123.952,148.06c1.212,0,2.424-.011,3.636.01a.631.631,0,0,1,.674.855.521.521,0,0,1-.536.378c-.273.01-.547,0-.821,0h-6.48c-.088,0-.176,0-.264,0a.629.629,0,0,1-.594-.641.606.606,0,0,1,.6-.6c.439-.014.88-.006,1.319-.006Z" transform="translate(-111.419 -136.79)"/></svg>