<svg xmlns="http://www.w3.org/2000/svg" width="26.857" height="23.894" viewBox="0 0 26.857 23.894"><defs><style>.a{fill:#11074c;}</style></defs><path class="a" d="M13.429,51.894a1.575,1.575,0,0,1-1.038-.39c-1.085-.949-2.131-1.84-3.054-2.627l0,0a56.8,56.8,0,0,1-6.668-6.259A10,10,0,0,1,0,36.071a8.394,8.394,0,0,1,2.131-5.733A7.222,7.222,0,0,1,7.5,28a6.756,6.756,0,0,1,4.22,1.457,8.634,8.634,0,0,1,1.706,1.781,8.633,8.633,0,0,1,1.706-1.781A6.756,6.756,0,0,1,19.355,28a7.222,7.222,0,0,1,5.372,2.338,8.394,8.394,0,0,1,2.13,5.733,10,10,0,0,1-2.664,6.543,56.787,56.787,0,0,1-6.667,6.258c-.925.788-1.972,1.681-3.06,2.632A1.576,1.576,0,0,1,13.429,51.894ZM7.5,29.573A5.666,5.666,0,0,0,3.287,31.4a6.829,6.829,0,0,0-1.714,4.667,8.411,8.411,0,0,0,2.3,5.54,55.894,55.894,0,0,0,6.477,6.065l0,0c.926.789,1.977,1.685,3.069,2.64,1.1-.958,2.151-1.854,3.079-2.645a55.9,55.9,0,0,0,6.477-6.065,8.412,8.412,0,0,0,2.3-5.54A6.829,6.829,0,0,0,23.57,31.4a5.666,5.666,0,0,0-4.215-1.831A5.218,5.218,0,0,0,16.1,30.7a7.635,7.635,0,0,0-1.815,2.1.993.993,0,0,1-1.706,0,7.627,7.627,0,0,0-1.815-2.1A5.218,5.218,0,0,0,7.5,29.573Z" transform="translate(0 -28)"/></svg>