<?xml version="1.0" encoding="utf-8"?>
<!-- Generator: Adobe Illustrator 16.0.0, SVG Export Plug-In . SVG Version: 6.00 Build 0)  -->
<!DOCTYPE svg PUBLIC "-//W3C//DTD SVG 1.1//EN" "http://www.w3.org/Graphics/SVG/1.1/DTD/svg11.dtd">
<svg version="1.1" id="Layer_1" xmlns="http://www.w3.org/2000/svg" xmlns:xlink="http://www.w3.org/1999/xlink" x="0px" y="0px"
	 width="75px" height="47.333px" viewBox="0 0 75 47.333" enable-background="new 0 0 75 47.333" xml:space="preserve">
<path fill-rule="evenodd" clip-rule="evenodd" d="M74.184,40.551c-1.401,1.577-1.79,1.667-3.835,0.849
	c-5.838-2.337-11.673-4.677-17.508-7.01c-0.475-0.192-0.963-0.351-1.657-0.602c0,1.859,0.007,3.516,0,5.172
	c-0.017,4.804-2.763,7.57-7.539,7.57C32.192,46.537,20.74,46.448,9.29,46.578c-4.183,0.045-7.094-1.388-8.473-5.453
	c0-11.656,0-23.311,0-34.965c1.38-4.065,4.285-5.502,8.472-5.456C20.69,0.835,32.094,0.748,43.497,0.751
	c4.982,0.002,7.677,2.708,7.687,7.711c0.004,1.608,0,3.216,0,5.031c0.691-0.247,1.176-0.405,1.649-0.596
	c5.839-2.335,11.671-4.675,17.509-7.012c2.021-0.808,2.464-0.707,3.842,0.847C74.184,18.005,74.184,29.279,74.184,40.551z
	 M25.922,42.234c5.87,0,11.739,0.004,17.609-0.003c2.516,0,3.351-0.832,3.354-3.348c0.004-10.164,0.004-20.33,0-30.495
	c-0.003-2.516-0.838-3.337-3.364-3.338c-11.691-0.003-23.384-0.003-35.075,0C5.911,5.052,5.117,5.854,5.116,8.399
	C5.115,18.564,5.114,28.729,5.117,38.891c0,2.536,0.8,3.341,3.337,3.341C14.277,42.238,20.099,42.234,25.922,42.234z M69.823,10.734
	c-6.097,2.437-12.065,4.808-18.011,7.244c-0.322,0.132-0.591,0.811-0.601,1.24c-0.052,2.911,0,5.824-0.045,8.735
	c-0.014,0.838,0.233,1.281,1.052,1.581c2.144,0.786,4.254,1.673,6.378,2.521c3.708,1.485,7.415,2.966,11.227,4.492
	C69.823,27.915,69.823,19.438,69.823,10.734z"/>
</svg>
